<svg width="24" height="24" viewBox="0 0 24 24" fill="none" xmlns="http://www.w3.org/2000/svg">
<path d="M16.023 9.34794H21.015L17.834 6.16494C16.8099 5.14081 15.5342 4.40433 14.1352 4.02955C12.7362 3.65476 11.2632 3.65487 9.86428 4.02986C8.46534 4.40486 7.18977 5.14153 6.16581 6.16581C5.14184 7.19009 4.40557 8.46588 4.03101 9.86494M2.98501 19.6439V14.6519M2.98501 14.6519H7.97701M2.98501 14.6519L6.16501 17.8349C7.18912 18.8591 8.4648 19.5955 9.8638 19.9703C11.2628 20.3451 12.7358 20.345 14.1347 19.97C15.5337 19.595 16.8092 18.8584 17.8332 17.8341C18.8572 16.8098 19.5934 15.534 19.968 14.1349M21.015 4.35594V9.34594" stroke="white" stroke-width="1.5" stroke-linecap="round" stroke-linejoin="round"/>
<path d="M11.8002 15.8182V7.63636H12.3244V15.8182H11.8002ZM13.0627 10.4169C13.0414 10.1825 12.9466 10.0004 12.7782 9.87038C12.612 9.73828 12.3745 9.67223 12.0655 9.67223C11.861 9.67223 11.6905 9.69886 11.5542 9.75213C11.4178 9.8054 11.3155 9.87891 11.2473 9.97266C11.1792 10.0643 11.144 10.1697 11.1419 10.2891C11.1376 10.3871 11.1568 10.4734 11.1994 10.5479C11.2441 10.6225 11.3081 10.6886 11.3912 10.7461C11.4764 10.8015 11.5787 10.8505 11.698 10.8931C11.8173 10.9357 11.9515 10.973 12.1007 11.005L12.6632 11.1328C12.987 11.2031 13.2725 11.2969 13.5197 11.4141C13.769 11.5312 13.9778 11.6708 14.1461 11.8327C14.3166 11.9947 14.4455 12.1811 14.5328 12.392C14.6202 12.603 14.665 12.8395 14.6671 13.1016C14.665 13.5149 14.5605 13.8697 14.3539 14.1658C14.1472 14.462 13.85 14.6889 13.4622 14.8466C13.0765 15.0043 12.611 15.0831 12.0655 15.0831C11.5179 15.0831 11.0407 15.0011 10.6337 14.837C10.2267 14.6729 9.91033 14.4237 9.68448 14.0891C9.45863 13.7546 9.34251 13.3317 9.33612 12.8203H10.851C10.8638 13.0312 10.9203 13.207 11.0204 13.3477C11.1206 13.4883 11.258 13.5948 11.4327 13.6673C11.6096 13.7397 11.8141 13.7759 12.0463 13.7759C12.2594 13.7759 12.4405 13.7472 12.5897 13.6896C12.7409 13.6321 12.8571 13.5522 12.938 13.4499C13.019 13.3477 13.0605 13.2305 13.0627 13.0984C13.0605 12.9748 13.0222 12.8693 12.9476 12.782C12.873 12.6925 12.758 12.6158 12.6025 12.5518C12.449 12.4858 12.253 12.4251 12.0144 12.3697L11.3304 12.2099C10.7637 12.0799 10.3173 11.87 9.9913 11.5803C9.66531 11.2884 9.50337 10.8942 9.5055 10.3977C9.50337 9.9929 9.61204 9.63814 9.8315 9.33345C10.051 9.02876 10.3546 8.79119 10.7424 8.62074C11.1301 8.45028 11.5723 8.36506 12.0687 8.36506C12.5758 8.36506 13.0158 8.45135 13.3887 8.62393C13.7637 8.79439 14.0545 9.03409 14.2612 9.34304C14.4679 9.65199 14.5733 10.0099 14.5776 10.4169H13.0627Z" fill="white"/>
</svg>
